<?xml version="1.0" encoding="utf-8"?>
<!-- Generator: Adobe Illustrator 16.0.0, SVG Export Plug-In . SVG Version: 6.00 Build 0)  -->
<!DOCTYPE svg PUBLIC "-//W3C//DTD SVG 1.1//EN" "http://www.w3.org/Graphics/SVG/1.1/DTD/svg11.dtd">
<svg version="1.1" id="tomato" xmlns="http://www.w3.org/2000/svg" xmlns:xlink="http://www.w3.org/1999/xlink" x="0px" y="0px"
	 width="470px" height="440px" viewBox="0 0 470 440" enable-background="new 0 0 470 440" xml:space="preserve">
<g>
	<path fill="#F2634B" d="M226.229,108.562c-24,7.333-52.667-6.15-76.667-8.817c-12-1.333-31.333-4.667-43.333-0.667
		c-17.333,4.667-35.333,25.333-47.333,37.333c-42.667,42.667-66.667,126.667-41.333,184c14.667,34,31.333,66.667,66.667,82
		c26.667,12,62,22,90.667,26c29.333,3.334,58-6.666,86.667,0c35.332,8.667,57.333,6.667,91.333-8.666
		c36-16.667,57.334-44,78.667-76.667c16.667-24.667,34.667-65.333,30.667-96c-4-29.333-21.335-64.667-36-90.667
		c-19.335-32.667-51.335-52-88-59.333c-20-3.333-43.335-2.667-62.667,0.667c-11.334,2-22,4.667-32.668,6.667
		c-11.333,1.333-22.667,7.621-34,6.287"/>
	<g>
		<path d="M224.9,103.741c-13.421,3.845-27.294,1.287-40.61-1.755c-12.855-2.936-25.421-6.091-38.532-7.691
			c-12.301-1.501-24.728-3.231-37.052-1.026c-11.688,2.091-21.729,9.612-30.507,17.162c-17.32,14.897-33.646,32.379-45.722,51.812
			c-12.594,20.264-21.273,43.134-26.166,66.442c-4.834,23.029-5.645,47.004-0.887,70.107c2.336,11.342,6.737,21.854,11.438,32.379
			c5.011,11.221,10.507,22.232,17.095,32.616c6.369,10.04,13.981,19.351,22.932,27.192c9.464,8.294,20.308,13.98,31.854,18.793
			c26.115,10.884,53.769,18.679,81.729,23.01c30.487,4.722,61.338-6.417,91.578,0.89c13.011,3.145,26.392,5.174,39.8,4.789
			c12.792-0.367,25.325-3.403,37.32-7.709c24.906-8.938,46.614-23.142,64.639-42.503c16.838-18.085,31.614-39.529,43.205-61.328
			c11.938-22.449,21.633-48.465,20.703-74.248c-0.463-12.824-4.338-25.654-8.517-37.688c-4.597-13.236-10.414-26.063-16.654-38.596
			c-5.797-11.645-11.794-23.385-19.6-33.83c-7.303-9.77-16-18.152-25.732-25.471c-19.878-14.947-44.604-23.818-69.228-26.349
			c-19.772-2.032-39.896-0.533-59.366,3.234c-10.173,1.968-20.249,4.35-30.452,6.153c-9.89,1.748-19.013,6.444-29.271,5.572
			c-6.429-0.546-6.376,9.458,0,10c6.853,0.583,13.473-0.951,20.029-2.802c7.44-2.101,14.858-3.52,22.42-5.082
			c14.844-3.066,29.452-6.395,44.612-7.465c27.432-1.938,54.319,1.991,78.933,14.596c22.802,11.678,39.353,29.771,51.486,52.054
			c13.129,24.109,25.347,49.78,30.334,76.964c4.684,25.528-5.575,52.705-16.901,75.149c-11.209,22.209-26.273,43.734-43.07,62.063
			c-18.244,19.907-40.864,33.778-66.511,42.078c-12.14,3.928-24.6,5.666-37.342,5.146c-14.412-0.589-28.056-5.211-42.303-6.79
			c-15.261-1.69-30.725,0.528-45.935,1.754c-15.121,1.217-29.457,0.42-44.331-2.47c-27.259-5.294-55.785-13.186-80.477-26.143
			c-21.984-11.536-36.333-32.244-47.334-53.838c-10.845-21.287-18.993-42.671-20.145-66.74
			c-2.212-46.217,15.17-96.341,46.509-130.525c7.981-8.706,16.435-17.238,25.227-25.119c8.999-8.067,19.199-15.098,31.542-16.173
			c26.286-2.289,52.041,7.107,77.504,11.638c11.428,2.033,23.15,2.614,34.414-0.613C233.746,111.61,231.112,101.96,224.9,103.741
			L224.9,103.741z"/>
	</g>
</g>
<g>
	<g>
		<path fill="#7DC24B" d="M293.594,145.197c-17.977,3.83-40.039-15.087-54.919-23.192l0.06-0.673
			c21.478,2.586,28.548-38.843,35.248-53.171c14.131-29.27,32.02-16.829,54.364-8.739l0.791-1.286
			c-10.051-9.033-15.448-16.974-31.108-16.33c-11.562,0.331-21.58,6.224-31.047,13.523c-11.666,9.139-20.324,22.615-27.578,35.538
			c-4.094,7.52-7.447,12.503-11.994,15.137c2.521-15.617,5.512-31.144,11.792-45.729c7.247-17.068,19.978-31.669,26.054-49.669
			c-19.277-0.134-41.567,5.9-60.549-4.467l-2.522,0.426c16.153,33.418,18.662,66.612,13.093,101.556
			c-1.961-0.165-4.106-0.489-6.486-0.98l0.06-0.673c-15.257-11.53-30.198-18.962-38.799-36.685
			c-8.048-16.316-12.611-33.68-7.632-51.552l-1.959-0.853c-10.064,14.029-3.332,45.152,2.144,59.884
			c6.582,17.542,23.633,39.407,42.24,43.773l-4.278,2.333c-9.602,1.183-17.661,7.929-29.163,7.586
			c-8.809-0.105-18.904-1.001-26.801-3.737c-20.999-7.97-39.441-21.818-35.21-46.541l-2.572-1.585
			c-9.832,27.879,1.798,51.723,28.521,62.537c0.351,29.072,26.927,36.651,52.803,37.617c12.174,0.403,26.727-3.053,33.859-14.629
			c6.221-8.945,4.604-21.298,10.885-30.915l0.18-2.02c-0.014,23.063,36.899,35.159,55.668,30.042
			c14.553-3.456,25.901-16.693,34.936-26.744c8.521-10.609,15.891-14.854,27.567-18.818
			C325.748,102.49,312.842,140.844,293.594,145.197z M136.436,142.772l-0.327-0.83c0.131,0.051,0.256,0.107,0.387,0.157
			c9.856,3.589,21.238,5.278,32.066,5.562c15.54,0.701,26.592-9.17,41.263-13.972l-2.931,2.453
			C208.99,173.635,149.151,167.643,136.436,142.772z"/>
		<g>
			<path d="M292.266,140.376c-9.121,1.675-18.355-3.059-26.078-7.343c-8.555-4.746-16.437-10.601-24.989-15.345
				c0.825,1.439,1.651,2.878,2.477,4.317c0.021-0.225,0.04-0.449,0.06-0.673c-1.666,1.667-3.332,3.333-5,5
				c22.863,2.108,30.779-30.193,36.209-46.511c3.218-9.672,7.734-22.208,18.805-24.816c4.967-1.17,10.541,0.748,15.192,2.313
				c6.113,2.057,12.021,4.706,18.077,6.925c2.116,0.776,4.543-0.504,5.646-2.298c0.264-0.428,0.527-0.857,0.791-1.286
				c1.133-1.841,0.843-4.582-0.782-6.059c-7.196-6.542-13.676-13.691-23.262-16.606c-11.899-3.619-24.912,0.366-35.267,6.341
				c-11.545,6.663-20.695,16.136-28.414,26.88c-3.922,5.46-7.342,11.279-10.644,17.129c-2.722,4.822-5.357,10.304-10.201,13.343
				c2.448,1.882,4.896,3.764,7.345,5.646c2.904-17.844,6.476-35.714,14.802-51.922c7.531-14.664,17.548-27.779,23.044-43.476
				c1.087-3.103-1.738-6.333-4.821-6.329c-11.552,0.017-23.021,1.734-34.58,1.606c-5.727-0.063-11.299-0.878-16.78-2.535
				c-2.729-0.825-5.158-2.617-7.861-3.36c-1.64-0.451-3.541,0.149-5.18,0.426c-3.425,0.578-4.246,4.705-2.988,7.345
				c14.647,30.747,17.787,64.276,12.589,97.704c1.607-1.224,3.214-2.447,4.821-3.671c-1.745-0.178-3.436-0.468-5.157-0.801
				c1.224,1.607,2.447,3.214,3.671,4.821c0.312-3.525-2.456-5.035-4.956-6.876c-3.282-2.418-6.644-4.729-9.973-7.082
				c-6.84-4.834-13.319-9.994-18.668-16.486c-6.147-7.462-9.841-17.412-12.47-26.586c-2.877-10.044-3.123-20.443-0.483-30.55
				c0.516-1.974-0.257-4.759-2.298-5.646c-0.653-0.284-1.306-0.568-1.959-0.853c-2.634-1.146-5.173-0.668-6.841,1.794
				c-5.76,8.504-6.278,19.549-5.666,29.476c0.657,10.652,2.972,21.32,6.311,31.439c6.983,21.17,24.194,44.311,46.727,50.087
				c-0.398-3.046-0.796-6.092-1.194-9.139c-2.634,1.437-4.314,1.938-7.119,2.639c-5.002,1.25-9.685,3.651-14.589,5.224
				c-10.552,3.384-24.369,1.182-34.682-2.186c-17.802-5.813-34.855-20.007-31.718-40.391c0.354-2.296-0.215-4.363-2.298-5.646
				c-0.857-0.528-1.715-1.057-2.572-1.585c-2.885-1.778-6.333,0.013-7.345,2.988c-4.689,13.78-4.933,28.126,1.057,41.521
				c5.855,13.093,18.108,21.807,30.957,27.167c-1.224-1.607-2.447-3.214-3.671-4.821c0.36,13.15,5.649,24.197,16.429,31.863
				c10.313,7.335,23.886,9.495,36.198,10.468c13.98,1.105,28.695-1.148,39.088-11.332c5.798-5.681,8.338-13.404,10.023-21.117
				c0.922-4.221,1.735-8.513,3.532-12.47c1.216-2.674,2.195-4.432,2.457-7.36c-3.333,0-6.667,0-10,0
				c0.589,24.887,31.009,36.46,52.118,36.191c14.842-0.188,27.014-8.621,37.185-18.725c5.628-5.59,10.405-11.983,16.098-17.491
				c5.37-5.197,12.128-8.261,19.103-10.673c3.808-1.317,5.316-7.032,1.193-9.139c-12.499-6.387-23.912-2.919-34.163,5.756
				C311.058,124.827,303.663,137.5,292.266,140.376c-6.25,1.577-3.599,11.221,2.657,9.643c10.722-2.705,18.281-12.049,25.691-19.603
				c7.721-7.871,16.766-15.729,28.1-9.937c0.398-3.046,0.796-6.092,1.194-9.139c-6.054,2.094-11.935,4.54-17.246,8.159
				c-5.647,3.847-9.853,8.959-14.365,13.993c-9.106,10.157-18.803,20.759-32.646,23.828c-16.012,3.55-47.114-5.803-47.584-25.639
				c-0.154-6.538-9.437-6.335-10,0c-0.05,0.568-0.101,1.136-0.152,1.704c0.235-2.635-1.591,2.045-1.599,2.063
				c-1.28,2.816-2.124,5.771-2.859,8.766c-1.672,6.807-2.653,13.118-6.563,19.088c-6.78,10.351-21.574,11.406-32.633,10.747
				c-10.129-0.604-20.597-2.44-29.566-7.39c-9.499-5.241-14.063-14.395-14.354-25.031c-0.067-2.452-1.532-3.929-3.671-4.821
				c-10.798-4.504-19.852-11.947-24.98-22.571c-5.12-10.607-3.714-23.042-0.049-33.815c-2.448,0.996-4.896,1.992-7.345,2.988
				c0.857,0.528,1.715,1.057,2.572,1.585c-0.766-1.882-1.532-3.764-2.298-5.646c-1.71,11.115-0.035,21.814,6.696,31.029
				c6.691,9.16,16.73,15.213,26.988,19.627c12.29,5.29,27.455,7.389,40.71,5.284c6.11-0.97,11.739-4.004,17.578-5.904
				c2.176-0.708,4.726-0.706,6.731-1.798c1.365-0.744,2.729-1.488,4.094-2.232c3.798-2.071,2.94-8.079-1.194-9.139
				c-19.192-4.92-33.646-25.23-39.743-43.103c-3.013-8.833-5.007-18.128-5.849-27.419c-0.777-8.575-0.811-18.397,4.197-25.791
				c-2.28,0.598-4.561,1.196-6.841,1.794c0.653,0.284,1.306,0.568,1.959,0.853c-0.766-1.882-1.532-3.764-2.298-5.646
				c-5.239,20.059-0.028,40.38,9.627,58.266c8.644,16.013,25.033,25.079,39.102,35.617c-0.826-1.439-1.651-2.878-2.477-4.317
				c-0.02,0.224-0.04,0.449-0.06,0.673c-0.183,2.066,1.647,4.43,3.671,4.821c2.592,0.502,5.188,0.891,7.815,1.159
				c2.003,0.205,4.509-1.661,4.821-3.671C225.743,73.147,222.41,37.44,206.5,4.042c-0.996,2.448-1.992,4.896-2.988,7.345
				c0.841-0.142,1.682-0.284,2.522-0.426c-1.284-0.168-2.568-0.336-3.853-0.504c20.051,10.44,41.604,5.18,63.073,5.149
				c-1.607-2.11-3.214-4.219-4.82-6.329c-5.535,15.808-16.119,29.106-23.513,44.011c-7.97,16.065-11.477,33.825-14.334,51.387
				c-0.655,4.022,3.273,8.202,7.345,5.646c8.753-5.493,12.861-15.598,17.973-24.136c6.138-10.252,13.364-20.27,22.954-27.572
				c9.459-7.203,19.711-12.45,31.865-11.729c9.681,0.575,16.237,8.752,22.876,14.786c-0.261-2.02-0.521-4.04-0.781-6.059
				c-0.265,0.428-0.527,0.857-0.791,1.286c1.882-0.766,3.765-1.532,5.646-2.298c-10.797-3.958-21.731-9.917-33.512-9.844
				c-13.128,0.08-22.232,11.038-27.075,22.174c-4.331,9.958-6.78,20.629-11.058,30.617c-3.445,8.046-8.895,19.745-19.297,18.785
				c-2.887-0.266-4.777,2.487-5,5c-0.02,0.225-0.04,0.449-0.06,0.673c-0.149,1.681,1.049,3.525,2.478,4.317
				c17.904,9.933,36.668,27.756,58.771,23.696C301.26,148.854,298.566,139.218,292.266,140.376z"/>
			<path d="M141.257,141.443c-0.109-0.277-0.218-0.554-0.327-0.83c-2.05,2.05-4.1,4.1-6.15,6.15
				c11.891,4.829,27.439,7.083,40.191,5.596c13.089-1.526,23.956-9.666,36.184-13.85c-1.622-2.786-3.243-5.571-4.865-8.357
				c-0.977,0.818-1.954,1.635-2.931,2.453c-2.11,1.767-1.356,5.195-1.486,7.596c-0.188,3.488-1.525,6.703-3.511,9.528
				c-3.752,5.343-11.377,7.412-17.493,7.961c-14.194,1.275-32.974-4.038-40.116-17.442c-3.033-5.693-11.666-0.641-8.635,5.047
				c15.665,29.398,81.52,33.537,79.776-9.154c-0.488,1.179-0.976,2.357-1.464,3.536c0.977-0.818,1.954-1.635,2.931-2.453
				c3.834-3.209-0.244-9.938-4.865-8.357c-10.875,3.721-20.597,10.406-31.812,13.12c-6.118,1.481-12.884,0.572-19.058-0.097
				c-6.762-0.733-13.871-2.205-20.188-4.77c-3.391-1.377-7.477,2.784-6.15,6.15c0.109,0.277,0.218,0.554,0.327,0.83
				C133.95,150.029,143.624,147.449,141.257,141.443z"/>
		</g>
	</g>
</g>
<path fill="none" stroke="#000000" stroke-width="10" stroke-linecap="round" stroke-linejoin="round" stroke-miterlimit="10" d="
	M375.563,154.412c0,0,27.334,9,31,46"/>
<text transform="matrix(1 0 0 1 176.7329 401.5)" font-family="'Roboto-Regular'" font-size="18">©huyen.anh.fe</text>
</svg>
