<svg style="position: absolute; width: 0; height: 0; overflow: hidden;" version="1.1" xmlns="http://www.w3.org/2000/svg">
  <defs>
    
    <symbol id="ico-arrow01" viewBox="0 0 8.49 14.14">
      <title></title>
      <polygon points="7.07 5.66 7.07 5.66 1.41 0 0 1.41 5.66 7.07 0 12.73 1.41 14.14 7.07 8.48 8.48 7.07 7.07 5.66"/>
    </symbol>
    
    <symbol id="ico-blank01" viewBox="0 0 11 11">
      <title></title>
      <path fill-rule="evenodd" d="M3.000,11.000 L3.000,8.000 L-0.000,8.000 L-0.000,-0.000 L8.000,-0.000 L8.000,3.000 L11.000,3.000 L11.000,11.000 L3.000,11.000 ZM7.000,1.000 L3.000,1.000 L1.000,1.000 L1.000,7.000 L3.000,7.000 L3.000,3.000 L7.000,3.000 L7.000,1.000 ZM7.000,4.000 L4.000,4.000 L4.000,7.000 L7.000,7.000 L7.000,4.000 ZM10.000,8.000 L10.000,4.000 L8.000,4.000 L8.000,8.000 L4.000,8.000 L4.000,10.000 L10.000,10.000 L10.000,8.000 Z"/>
    </symbol>

    <symbol id="ico-play-01" viewBox="0 0 68 48">
      <title></title>
      <path d="M66.52,7.74c-0.78-2.93-2.49-5.41-5.42-6.19C55.79,.13,34,0,34,0S12.21,.13,6.9,1.55 C3.97,2.33,2.27,4.81,1.48,7.74C0.06,13.05,0,24,0,24s0.06,10.95,1.48,16.26c0.78,2.93,2.49,5.41,5.42,6.19 C12.21,47.87,34,48,34,48s21.79-0.13,27.1-1.55c2.93-0.78,4.64-3.26,5.42-6.19C67.94,34.95,68,24,68,24S67.94,13.05,66.52,7.74z"></path><path d="M 45,24 27,14 27,34" fill="#fff"></path>
    </symbol>
    
  </defs>
</svg>